<svg width="22" height="22" viewBox="0 0 22 22" fill="none" xmlns="http://www.w3.org/2000/svg">
<mask id="path-1-inside-1" fill="white">
<path fill-rule="evenodd" clip-rule="evenodd" d="M3.6875 1.375C2.03065 1.375 0.6875 2.71815 0.6875 4.375V10.3125H21.3125V4.375C21.3125 2.71815 19.9694 1.375 18.3125 1.375H3.6875ZM21.3125 11.6875H0.6875V17.625C0.6875 19.2819 2.03065 20.625 3.6875 20.625H18.3125C19.9694 20.625 21.3125 19.2819 21.3125 17.625V11.6875Z"/>
</mask>
<path fill-rule="evenodd" clip-rule="evenodd" d="M3.6875 1.375C2.03065 1.375 0.6875 2.71815 0.6875 4.375V10.3125H21.3125V4.375C21.3125 2.71815 19.9694 1.375 18.3125 1.375H3.6875ZM21.3125 11.6875H0.6875V17.625C0.6875 19.2819 2.03065 20.625 3.6875 20.625H18.3125C19.9694 20.625 21.3125 19.2819 21.3125 17.625V11.6875Z" fill="#CDCED9"/>
<path d="M0.6875 10.3125H-0.3125V11.3125H0.6875V10.3125ZM21.3125 10.3125V11.3125H22.3125V10.3125H21.3125ZM21.3125 11.6875H22.3125V10.6875H21.3125V11.6875ZM0.6875 11.6875V10.6875H-0.3125V11.6875H0.6875ZM1.6875 4.375C1.6875 3.27043 2.58293 2.375 3.6875 2.375V0.375C1.47836 0.375 -0.3125 2.16586 -0.3125 4.375H1.6875ZM1.6875 10.3125V4.375H-0.3125V10.3125H1.6875ZM0.6875 11.3125H21.3125V9.3125H0.6875V11.3125ZM20.3125 4.375V10.3125H22.3125V4.375H20.3125ZM18.3125 2.375C19.4171 2.375 20.3125 3.27043 20.3125 4.375H22.3125C22.3125 2.16586 20.5216 0.375 18.3125 0.375V2.375ZM3.6875 2.375H18.3125V0.375H3.6875V2.375ZM21.3125 10.6875H0.6875V12.6875H21.3125V10.6875ZM1.6875 17.625V11.6875H-0.3125V17.625H1.6875ZM3.6875 19.625C2.58293 19.625 1.6875 18.7296 1.6875 17.625H-0.3125C-0.3125 19.8341 1.47836 21.625 3.6875 21.625V19.625ZM18.3125 19.625H3.6875V21.625H18.3125V19.625ZM20.3125 17.625C20.3125 18.7296 19.4171 19.625 18.3125 19.625V21.625C20.5216 21.625 22.3125 19.8341 22.3125 17.625H20.3125ZM20.3125 11.6875V17.625H22.3125V11.6875H20.3125Z" fill="#CDCED9" mask="url(#path-1-inside-1)"/>
<path d="M8.5874 15.4688L8.5874 16.1562H13.3999V15.4688" stroke="#CDCED9" stroke-linecap="square"/>
<path d="M8.5874 5.48193L8.5874 6.16943H13.3999V5.48193" stroke="#CDCED9" stroke-linecap="square"/>
</svg>
