<svg width="26" height="26" viewBox="0 0 26 26" fill="none" xmlns="http://www.w3.org/2000/svg">
<path fill-rule="evenodd" clip-rule="evenodd" d="M23.9045 8.90312H20.5717V5.61874C20.5717 5.35997 20.3561 5.14101 20.0816 5.14101H9.78921L8.0248 3.38934C7.92678 3.30972 7.80915 3.25 7.69152 3.25H2.90801C2.65315 3.25 2.4375 3.46896 2.4375 3.72773V16.8852C2.4375 17.1439 2.65315 17.3629 2.90801 17.3629C3.18247 17.3629 3.39812 17.1439 3.39812 16.8852V4.20546H7.49548L9.25989 5.93722C9.3383 6.03675 9.47554 6.07656 9.59316 6.07656H19.6111V8.90312H6.7309C6.47604 8.90312 6.26039 9.10217 6.26039 9.36094V22.2723C6.26039 22.531 6.47604 22.75 6.7309 22.75H23.9045C24.1593 22.75 24.375 22.531 24.375 22.2723V9.36094C24.375 9.10217 24.1593 8.90312 23.9045 8.90312Z" fill="#CDCED9"/>
<path fill-rule="evenodd" clip-rule="evenodd" d="M16.6562 17.5662L18.4194 18.07C19.0206 18.2406 19.5 18.8744 19.5 19.5V19.9062C19.5 20.1256 19.3131 20.3125 19.0938 20.3125H15.4375H14.625H10.9688C10.7412 20.3125 10.5625 20.1256 10.5625 19.9062V19.5C10.5625 18.8663 11.0338 18.2406 11.635 18.07L13.4062 17.5662V16.9406C12.6669 16.3881 12.1875 15.47 12.1875 14.4381C12.1875 12.7481 13.4631 11.375 15.0312 11.375C16.5994 11.375 17.875 12.7481 17.875 14.4381C17.875 15.47 17.3875 16.3881 16.6562 16.9406V17.5662Z" fill="#CDCED9"/>
</svg>
