<svg width="32" height="32" viewBox="0 0 32 32" fill="none" xmlns="http://www.w3.org/2000/svg">
<path fill-rule="evenodd" clip-rule="evenodd" d="M12.0571 22.1204C11.9864 22.0746 11.9054 22.0519 11.8249 22.0519C11.7396 22.0519 11.6543 22.0776 11.581 22.1281L10.5867 22.8164C10.4196 22.9313 10.1821 22.9094 10.0394 22.7671L9.23286 21.9606C9.08629 21.814 9.06571 21.5839 9.18357 21.4137L9.87186 20.419C9.97086 20.2763 9.97386 20.0886 9.87957 19.9429C9.40043 19.2006 9.06443 18.3914 8.88057 17.5394C8.84414 17.3693 8.70914 17.239 8.53857 17.2073L7.35186 16.9921C7.14786 16.9549 7 16.7774 7 16.5704V15.4296C7 15.2221 7.14786 15.0447 7.35186 15.0079L8.53857 14.7927C8.70914 14.761 8.84414 14.6307 8.88057 14.4606C9.06443 13.6086 9.40043 12.7994 9.87957 12.0571C9.97386 11.9114 9.97086 11.7233 9.87186 11.5806L9.18357 10.5863C9.06571 10.4161 9.08629 10.186 9.23286 10.0394L10.0394 9.23286C10.1821 9.09057 10.42 9.06829 10.5863 9.18357L11.581 9.87186C11.7233 9.97086 11.9114 9.97429 12.0571 9.87957C12.7999 9.4 13.6086 9.064 14.461 8.88057C14.6303 8.84414 14.7614 8.70871 14.7923 8.53814L15.0079 7.35229C15.0451 7.14829 15.2226 7 15.4296 7H16.5704C16.7779 7 16.9549 7.14829 16.9921 7.35186L17.2077 8.53814C17.2386 8.70871 17.3697 8.84414 17.539 8.88057C18.3919 9.064 19.2001 9.4 19.9429 9.87957C20.089 9.97429 20.2771 9.97086 20.4194 9.87186L21.4137 9.18357C21.58 9.06786 21.8174 9.09057 21.9606 9.23286L22.7676 10.0394C22.9141 10.186 22.9347 10.4161 22.8164 10.5863L22.1281 11.5806C22.0296 11.7233 22.0266 11.9114 22.1204 12.0571C22.6 12.7994 22.936 13.6086 23.1194 14.4606C23.1559 14.6307 23.2909 14.761 23.4619 14.7927L24.6481 15.0074C24.8521 15.0447 25 15.2221 25 15.4296V16.5704C25 16.7774 24.8521 16.9549 24.6481 16.9917L23.4619 17.2073C23.2909 17.239 23.1559 17.3693 23.1194 17.5394C22.936 18.3914 22.6 19.2006 22.1204 19.9429C22.0266 20.0886 22.0296 20.2763 22.1281 20.419L22.8164 21.4137C22.9347 21.5839 22.9141 21.814 22.7676 21.9606L21.9606 22.7671C21.8179 22.9094 21.5804 22.9317 21.4137 22.8164L20.4194 22.1281C20.2771 22.0291 20.0886 22.0253 19.9429 22.1204C19.2006 22.5996 18.3919 22.936 17.539 23.1194C17.3697 23.1559 17.2386 23.2913 17.2077 23.4619L16.9921 24.6477C16.9549 24.8517 16.7779 25 16.5704 25H15.4296C15.2226 25 15.0451 24.8517 15.0079 24.6481L14.7923 23.4619C14.7614 23.2913 14.6303 23.1559 14.461 23.1194C13.6081 22.936 12.7994 22.5996 12.0571 22.1204ZM13.0001 16C13.0001 14.3461 14.3458 13 16.0001 13C17.6544 13 19.0001 14.3461 19.0001 16C19.0001 17.6538 17.6544 19 16.0001 19C14.3458 19 13.0001 17.6538 13.0001 16Z" fill="#CDCED9"/>
</svg>
